<svg viewBox="0 0 330 200" xmlns="http://www.w3.org/2000/svg"><g><g><g><g><g><line x1="40" y1="177" x2="35" y2="177" style="visibility: inherit;" fill="rgb(0, 0, 0)" stroke="rgb(204, 204, 204)" stroke-width="1px"></line><line x1="40" y1="151.71428571428572" x2="35" y2="151.71428571428572" style="visibility: inherit;" fill="rgb(0, 0, 0)" stroke="rgb(204, 204, 204)" stroke-width="1px"></line><line x1="40" y1="126.42857142857143" x2="35" y2="126.42857142857143" style="visibility: inherit;" fill="rgb(0, 0, 0)" stroke="rgb(204, 204, 204)" stroke-width="1px"></line><line x1="40" y1="101.14285714285714" x2="35" y2="101.14285714285714" style="visibility: inherit;" fill="rgb(0, 0, 0)" stroke="rgb(204, 204, 204)" stroke-width="1px"></line><line x1="40" y1="75.85714285714286" x2="35" y2="75.85714285714286" style="visibility: inherit;" fill="rgb(0, 0, 0)" stroke="rgb(204, 204, 204)" stroke-width="1px"></line><line x1="40" y1="50.57142857142857" x2="35" y2="50.57142857142857" style="visibility: inherit;" fill="rgb(0, 0, 0)" stroke="rgb(204, 204, 204)" stroke-width="1px"></line><line x1="40" y1="25.285714285714295" x2="35" y2="25.285714285714295" style="visibility: inherit;" fill="rgb(0, 0, 0)" stroke="rgb(204, 204, 204)" stroke-width="1px"></line><line x1="40" y1="0" x2="35" y2="0" style="visibility: inherit;" fill="rgb(0, 0, 0)" stroke="rgb(204, 204, 204)" stroke-width="1px"></line></g><g transform="translate(30, 0)"><text x="0" y="177" dx="0em" dy="0.3em" style="text-anchor: end; visibility: hidden; font-family: Roboto, sans-serif; font-size: 12px; font-weight: 200;" fill="rgb(33, 33, 33)" stroke="none" stroke-width="1px">-50</text><text x="0" y="151.71428571428572" dx="0em" dy="0.3em" style="text-anchor: end; visibility: inherit; font-family: Roboto, sans-serif; font-size: 12px; font-weight: 200;" fill="rgb(33, 33, 33)" stroke="none" stroke-width="1px">0</text><text x="0" y="126.42857142857143" dx="0em" dy="0.3em" style="text-anchor: end; visibility: inherit; font-family: Roboto, sans-serif; font-size: 12px; font-weight: 200;" fill="rgb(33, 33, 33)" stroke="none" stroke-width="1px">50</text><text x="0" y="101.14285714285714" dx="0em" dy="0.3em" style="text-anchor: end; visibility: inherit; font-family: Roboto, sans-serif; font-size: 12px; font-weight: 200;" fill="rgb(33, 33, 33)" stroke="none" stroke-width="1px">100</text><text x="0" y="75.85714285714286" dx="0em" dy="0.3em" style="text-anchor: end; visibility: inherit; font-family: Roboto, sans-serif; font-size: 12px; font-weight: 200;" fill="rgb(33, 33, 33)" stroke="none" stroke-width="1px">150</text><text x="0" y="50.57142857142857" dx="0em" dy="0.3em" style="text-anchor: end; visibility: inherit; font-family: Roboto, sans-serif; font-size: 12px; font-weight: 200;" fill="rgb(33, 33, 33)" stroke="none" stroke-width="1px">200</text><text x="0" y="25.285714285714295" dx="0em" dy="0.3em" style="text-anchor: end; visibility: inherit; font-family: Roboto, sans-serif; font-size: 12px; font-weight: 200;" fill="rgb(33, 33, 33)" stroke="none" stroke-width="1px">250</text><text x="0" y="0" dx="0em" dy="0.3em" style="text-anchor: end; visibility: hidden; font-family: Roboto, sans-serif; font-size: 12px; font-weight: 200;" fill="rgb(33, 33, 33)" stroke="none" stroke-width="1px">300</text></g><line x1="40" y1="0" x2="40" y2="177" fill="rgb(0, 0, 0)" stroke="rgb(204, 204, 204)" stroke-width="1px"></line></g></g><g transform="translate(40, 0)" clip-path="url(#clip_0)"><clipPath id="clip_0"><rect width="290" height="177"></rect></clipPath><g><g><g><line x1="0" y1="0" x2="0" y2="177" fill="rgb(0, 0, 0)" stroke="rgb(66, 66, 66)" stroke-width="1px" opacity="0.25"></line><line x1="24.166666666666664" y1="0" x2="24.166666666666664" y2="177" fill="rgb(0, 0, 0)" stroke="rgb(66, 66, 66)" stroke-width="1px" opacity="0.25"></line><line x1="48.33333333333333" y1="0" x2="48.33333333333333" y2="177" fill="rgb(0, 0, 0)" stroke="rgb(66, 66, 66)" stroke-width="1px" opacity="0.25"></line><line x1="72.5" y1="0" x2="72.5" y2="177" fill="rgb(0, 0, 0)" stroke="rgb(66, 66, 66)" stroke-width="1px" opacity="0.25"></line><line x1="96.66666666666666" y1="0" x2="96.66666666666666" y2="177" fill="rgb(0, 0, 0)" stroke="rgb(66, 66, 66)" stroke-width="1px" opacity="0.25"></line><line x1="120.83333333333334" y1="0" x2="120.83333333333334" y2="177" fill="rgb(0, 0, 0)" stroke="rgb(66, 66, 66)" stroke-width="1px" opacity="0.25"></line><line x1="145" y1="0" x2="145" y2="177" fill="rgb(0, 0, 0)" stroke="rgb(66, 66, 66)" stroke-width="1px" opacity="0.25"></line><line x1="169.16666666666669" y1="0" x2="169.16666666666669" y2="177" fill="rgb(0, 0, 0)" stroke="rgb(66, 66, 66)" stroke-width="1px" opacity="0.25"></line><line x1="193.33333333333331" y1="0" x2="193.33333333333331" y2="177" fill="rgb(0, 0, 0)" stroke="rgb(66, 66, 66)" stroke-width="1px" opacity="0.25"></line><line x1="217.5" y1="0" x2="217.5" y2="177" fill="rgb(0, 0, 0)" stroke="rgb(66, 66, 66)" stroke-width="1px" opacity="0.25"></line><line x1="241.66666666666669" y1="0" x2="241.66666666666669" y2="177" fill="rgb(0, 0, 0)" stroke="rgb(66, 66, 66)" stroke-width="1px" opacity="0.25"></line><line x1="265.8333333333333" y1="0" x2="265.8333333333333" y2="177" fill="rgb(0, 0, 0)" stroke="rgb(66, 66, 66)" stroke-width="1px" opacity="0.25"></line><line x1="290" y1="0" x2="290" y2="177" fill="rgb(0, 0, 0)" stroke="rgb(66, 66, 66)" stroke-width="1px" opacity="0.25"></line></g><g><line x1="0" y1="177" x2="290" y2="177" fill="rgb(0, 0, 0)" stroke="rgb(66, 66, 66)" stroke-width="1px" opacity="0.25"></line><line x1="0" y1="151.71428571428572" x2="290" y2="151.71428571428572" fill="rgb(0, 0, 0)" stroke="rgb(66, 66, 66)" stroke-width="1px" opacity="0.25"></line><line x1="0" y1="126.42857142857143" x2="290" y2="126.42857142857143" fill="rgb(0, 0, 0)" stroke="rgb(66, 66, 66)" stroke-width="1px" opacity="0.25"></line><line x1="0" y1="101.14285714285714" x2="290" y2="101.14285714285714" fill="rgb(0, 0, 0)" stroke="rgb(66, 66, 66)" stroke-width="1px" opacity="0.25"></line><line x1="0" y1="75.85714285714286" x2="290" y2="75.85714285714286" fill="rgb(0, 0, 0)" stroke="rgb(66, 66, 66)" stroke-width="1px" opacity="0.25"></line><line x1="0" y1="50.57142857142857" x2="290" y2="50.57142857142857" fill="rgb(0, 0, 0)" stroke="rgb(66, 66, 66)" stroke-width="1px" opacity="0.25"></line><line x1="0" y1="25.285714285714295" x2="290" y2="25.285714285714295" fill="rgb(0, 0, 0)" stroke="rgb(66, 66, 66)" stroke-width="1px" opacity="0.25"></line><line x1="0" y1="0" x2="290" y2="0" fill="rgb(0, 0, 0)" stroke="rgb(66, 66, 66)" stroke-width="1px" opacity="0.25"></line></g></g></g><g><g><line x1="0" y1="151.71428571428572" x2="290" y2="151.71428571428572" fill="rgb(0, 0, 0)" stroke="rgb(153, 153, 153)" stroke-width="1.5px"></line></g></g><g><g><line x1="24.166666666666664" y1="0" x2="24.166666666666664" y2="177" fill="rgb(0, 0, 0)" stroke="rgb(153, 153, 153)" stroke-width="1.5px"></line></g></g><g><g><g><g><g><path stroke="rgb(255, 112, 67)" stroke-width="2px" d="M36.81066666666667,-42.89243553741747L39.227333333333334,16.522348979483436L41.92433333333334,52.273281279812814L44.341,75.84482547323016L47.038000000000004,88.43567953577903L49.45466666666667,98.96139793040876L52.15166666666667,105.89772964845078L54.568333333333335,110.79920165336947L57.26533333333334,114.66979131683964L59.682,116.02170918133577L62.379000000000005,120.14425446915189L64.79566666666668,122.5667361817599L67.49266666666666,124.89205564313235L69.90933333333334,127.01435147044577L72.60633333333334,128.90553133381295L75.023,129.61540969161183L77.72,130.62834228052725L80.13666666666666,131.50033174339993L82.83366666666667,132.37164927339387L85.25033333333333,132.33589918467786L87.94733333333333,133.03716759880615L90.36399999999999,133.6161338920395L93.061,134.6295686623291L95.47766666666666,135.26406474857174L98.17466666666667,135.94997915401416L100.59133333333332,136.6502199034216L103.28833333333334,136.93545050492904L105.705,136.81919531637527L108.402,137.77728208237744L110.81866666666666,138.24615796786867L113.51566666666668,138.79464140400677L115.93233333333333,139.14419546438285L118.62933333333334,139.76044043700188L121.04599999999999,140.02965610018458L123.74300000000001,140.61852587621416L126.15966666666667,140.7033922875781L128.85666666666668,141.09840673691224L131.27333333333334,141.31514971808522L133.97033333333334,141.77084399227246L136.387,141.94823495461574L139.084,142.27460115303148L141.50066666666666,142.44410113503187L144.19766666666666,142.83437835114742L146.61433333333335,142.84721905824387L149.31133333333335,142.9899016471762L151.728,143.16376156892585L154.42499999999998,143.59881586862116L156.84166666666667,143.66773686200193L159.53866666666667,143.95941150894274L161.95533333333333,144.01537385042533L164.65233333333333,144.33961389002835L167.069,144.30504586850185L169.76600000000002,144.58746007398378L172.18266666666668,144.59069349303354L174.87966666666665,144.9476314921563L177.2963333333333,144.8694548424286L179.99333333333334,145.09247759513698L182.41,145.07193055732634L185.107,145.3706805522826L187.52366666666666,145.3482314885438L190.2206666666667,145.60329235425561L192.63733333333334,145.63931743286062L195.33433333333332,145.84523468688053L197.75099999999998,145.77764497123823L200.448,146.04613584574517L202.86466666666666,145.94449522379057L205.56166666666667,146.5012153935953L207.97833333333332,146.75830404999994L210.67533333333336,147.11427135190112L213.092,147.2152123178458L215.789,147.45552178408343L218.20566666666664,147.42647402669658L220.90266666666668,147.63792582346684L223.31933333333333,147.58022008061053L226.01633333333334,147.73163796768657L228.433,147.70336870154526L231.13000000000002,147.97337140904622L233.54666666666668,148.1182184805421L236.24366666666666,148.28835465432607L238.6603333333333,148.34813074575987L241.35733333333334,148.4825079978448L243.774,148.46055726768796L246.471,148.5853616346083L248.88766666666666,148.54923950219268L251.5846666666667,148.6588500710971L254.00133333333335,148.60757902459184L256.6983333333333,148.7170887192072L259.115,148.67581871025791L261.812,148.82897112052035L264.2286666666667,148.90078863566495L266.92566666666664,149.0237733168752L269.34233333333333,149.01049979672652L272.03933333333333,149.08980894012174L274.456,149.09479905545751L277.153,149.18764458852178L279.56966666666665,149.2289640413865" style="fill: none;" fill="none"></path></g></g></g></g><g opacity="0.2"><g><g><g><path stroke="rgb(255, 112, 67)" stroke-width="2px" d="M29,-132.28314644949776L31.697,50.08545331682478L34.11366666666667,75.69515625L36.81066666666667,90.23929569789343L39.227333333333334,98.71438528878348L41.92433333333334,103.3976864842006L44.341,110.21236319405693L47.038000000000004,107.00474363054546L49.45466666666667,114.59086303710937L52.15166666666667,116.23931520734514L54.568333333333335,118.12473606654578L57.26533333333334,120.46303766523089L59.682,118.04693743024555L62.379000000000005,126.32322650364468L64.79566666666668,126.19875022888183L67.49266666666666,128.3790508379255L69.90933333333334,130.1972563607352L72.60633333333334,131.7420130266462L75.023,130.68016234261648L77.72,132.1476856122698L80.13666666666666,132.80828724452428L82.83366666666667,133.67860836574008L85.25033333333333,132.28227447509767L87.94733333333333,134.0890652356829L90.36399999999999,134.48458086286274L93.061,136.14971822466168L95.47766666666666,136.21580790383476L98.17466666666667,136.97885013035366L100.59133333333332,137.70058064052037L103.28833333333334,137.36329631260463L105.705,136.6448125566755L108.402,139.2144121170044L110.81866666666666,138.94947176252091L113.51566666666668,139.61736653464183L115.93233333333333,139.6685265459333L118.62933333333334,140.68480788639613L121.04599999999999,140.43347959245955L123.74300000000001,141.5018305369786L126.15966666666667,140.83069190434045L128.85666666666668,141.6909284101214L131.27333333333334,141.64026418958392L133.97033333333334,142.4543854032244L136.387,142.21432139805384L139.084,142.76415045057024L141.50066666666666,142.69835110800608L144.19766666666666,143.41979417528424L146.61433333333335,142.86648011888778L149.31133333333335,143.2039255305699L151.728,143.4245514515468L154.42499999999998,144.25139731815884L156.84166666666667,143.7711183520726L159.53866666666667,144.39692347935267L161.95533333333333,144.0993173626491L164.65233333333333,144.82597394943238L167.069,144.25319383621215L169.76600000000002,145.0110813822065L172.18266666666668,144.5955436216082L174.87966666666665,145.48303849084036L177.2963333333333,144.75218986783707L179.99333333333334,145.42701172419956L182.41,145.04111000061036L185.107,145.81880554471698L187.52366666666666,145.31455789293562L190.2206666666667,145.9858836528233L192.63733333333334,145.69335505076816L195.33433333333332,146.15411056791032L197.75099999999998,145.67626039777485L200.448,146.44887215750558L202.86466666666666,145.79203429085868L205.56166666666667,147.33629564830235L207.97833333333332,147.14393703460692L210.67533333333336,147.6482223047529L213.092,147.36662376676287L215.789,147.81598598343984L218.20566666666664,147.3829023906163L220.90266666666668,147.95510351862225L223.31933333333333,147.49366146632605L226.01633333333334,147.95876479830062L228.433,147.6609648023333L231.13000000000002,148.37837547029767L233.54666666666668,148.335489087786L236.24366666666666,148.543558915002L238.6603333333333,148.4377948829106L241.35733333333334,148.68407387597222L243.774,148.42763117245266L246.471,148.77256818498884L248.88766666666666,148.49505630356924L251.5846666666667,148.82326592445375L254.00133333333335,148.530672454834L256.6983333333333,148.8813532611302L259.115,148.61391369683403L261.812,149.05869973591396L264.2286666666667,149.00851490838187L266.92566666666664,149.20825033869062L269.34233333333333,148.99058951650346L272.03933333333333,149.20877265521457L274.456,149.10228422846114L277.153,149.32691288811822L279.56966666666665,149.29094322068352" style="fill: none;" fill="none"></path></g></g></g></g></g></g><g transform="translate(40, 177)" clip-path="url(#clip_1)"><clipPath id="clip_1"><rect width="290" height="23"></rect></clipPath><g><g><line x1="0" y1="0" x2="0" y2="5" style="visibility: inherit;" fill="rgb(0, 0, 0)" stroke="rgb(204, 204, 204)" stroke-width="1px"></line><line x1="24.166666666666664" y1="0" x2="24.166666666666664" y2="5" style="visibility: inherit;" fill="rgb(0, 0, 0)" stroke="rgb(204, 204, 204)" stroke-width="1px"></line><line x1="48.33333333333333" y1="0" x2="48.33333333333333" y2="5" style="visibility: inherit;" fill="rgb(0, 0, 0)" stroke="rgb(204, 204, 204)" stroke-width="1px"></line><line x1="72.5" y1="0" x2="72.5" y2="5" style="visibility: inherit;" fill="rgb(0, 0, 0)" stroke="rgb(204, 204, 204)" stroke-width="1px"></line><line x1="96.66666666666666" y1="0" x2="96.66666666666666" y2="5" style="visibility: inherit;" fill="rgb(0, 0, 0)" stroke="rgb(204, 204, 204)" stroke-width="1px"></line><line x1="120.83333333333334" y1="0" x2="120.83333333333334" y2="5" style="visibility: inherit;" fill="rgb(0, 0, 0)" stroke="rgb(204, 204, 204)" stroke-width="1px"></line><line x1="145" y1="0" x2="145" y2="5" style="visibility: inherit;" fill="rgb(0, 0, 0)" stroke="rgb(204, 204, 204)" stroke-width="1px"></line><line x1="169.16666666666669" y1="0" x2="169.16666666666669" y2="5" style="visibility: inherit;" fill="rgb(0, 0, 0)" stroke="rgb(204, 204, 204)" stroke-width="1px"></line><line x1="193.33333333333331" y1="0" x2="193.33333333333331" y2="5" style="visibility: inherit;" fill="rgb(0, 0, 0)" stroke="rgb(204, 204, 204)" stroke-width="1px"></line><line x1="217.5" y1="0" x2="217.5" y2="5" style="visibility: inherit;" fill="rgb(0, 0, 0)" stroke="rgb(204, 204, 204)" stroke-width="1px"></line><line x1="241.66666666666669" y1="0" x2="241.66666666666669" y2="5" style="visibility: inherit;" fill="rgb(0, 0, 0)" stroke="rgb(204, 204, 204)" stroke-width="1px"></line><line x1="265.8333333333333" y1="0" x2="265.8333333333333" y2="5" style="visibility: inherit;" fill="rgb(0, 0, 0)" stroke="rgb(204, 204, 204)" stroke-width="1px"></line><line x1="290" y1="0" x2="290" y2="5" style="visibility: inherit;" fill="rgb(0, 0, 0)" stroke="rgb(204, 204, 204)" stroke-width="1px"></line></g><g transform="translate(0, 8)"><text x="0" y="0" dx="0em" dy="0.95em" style="text-anchor: middle; visibility: hidden; font-family: Roboto, sans-serif; font-size: 12px; font-weight: 200;" fill="rgb(33, 33, 33)" stroke="none" stroke-width="1px">-5k</text><text x="24.166666666666664" y="0" dx="0em" dy="0.95em" style="text-anchor: middle; visibility: inherit; font-family: Roboto, sans-serif; font-size: 12px; font-weight: 200;" fill="rgb(33, 33, 33)" stroke="none" stroke-width="1px">0</text><text x="48.33333333333333" y="0" dx="0em" dy="0.95em" style="text-anchor: middle; visibility: hidden; font-family: Roboto, sans-serif; font-size: 12px; font-weight: 200;" fill="rgb(33, 33, 33)" stroke="none" stroke-width="1px">5k</text><text x="72.5" y="0" dx="0em" dy="0.95em" style="text-anchor: middle; visibility: inherit; font-family: Roboto, sans-serif; font-size: 12px; font-weight: 200;" fill="rgb(33, 33, 33)" stroke="none" stroke-width="1px">10k</text><text x="96.66666666666666" y="0" dx="0em" dy="0.95em" style="text-anchor: middle; visibility: hidden; font-family: Roboto, sans-serif; font-size: 12px; font-weight: 200;" fill="rgb(33, 33, 33)" stroke="none" stroke-width="1px">15k</text><text x="120.83333333333334" y="0" dx="0em" dy="0.95em" style="text-anchor: middle; visibility: inherit; font-family: Roboto, sans-serif; font-size: 12px; font-weight: 200;" fill="rgb(33, 33, 33)" stroke="none" stroke-width="1px">20k</text><text x="145" y="0" dx="0em" dy="0.95em" style="text-anchor: middle; visibility: hidden; font-family: Roboto, sans-serif; font-size: 12px; font-weight: 200;" fill="rgb(33, 33, 33)" stroke="none" stroke-width="1px">25k</text><text x="169.16666666666669" y="0" dx="0em" dy="0.95em" style="text-anchor: middle; visibility: inherit; font-family: Roboto, sans-serif; font-size: 12px; font-weight: 200;" fill="rgb(33, 33, 33)" stroke="none" stroke-width="1px">30k</text><text x="193.33333333333331" y="0" dx="0em" dy="0.95em" style="text-anchor: middle; visibility: hidden; font-family: Roboto, sans-serif; font-size: 12px; font-weight: 200;" fill="rgb(33, 33, 33)" stroke="none" stroke-width="1px">35k</text><text x="217.5" y="0" dx="0em" dy="0.95em" style="text-anchor: middle; visibility: inherit; font-family: Roboto, sans-serif; font-size: 12px; font-weight: 200;" fill="rgb(33, 33, 33)" stroke="none" stroke-width="1px">40k</text><text x="241.66666666666669" y="0" dx="0em" dy="0.95em" style="text-anchor: middle; visibility: hidden; font-family: Roboto, sans-serif; font-size: 12px; font-weight: 200;" fill="rgb(33, 33, 33)" stroke="none" stroke-width="1px">45k</text><text x="265.8333333333333" y="0" dx="0em" dy="0.95em" style="text-anchor: middle; visibility: inherit; font-family: Roboto, sans-serif; font-size: 12px; font-weight: 200;" fill="rgb(33, 33, 33)" stroke="none" stroke-width="1px">50k</text><text x="290" y="0" dx="0em" dy="0.95em" style="text-anchor: middle; visibility: hidden; font-family: Roboto, sans-serif; font-size: 12px; font-weight: 200;" fill="rgb(33, 33, 33)" stroke="none" stroke-width="1px">55k</text></g><line x1="0" y1="0" x2="290" y2="0" fill="rgb(0, 0, 0)" stroke="rgb(204, 204, 204)" stroke-width="1px"></line></g></g></g></g></svg>